
<svg width="23" height="20" viewBox="0 0 23 20" fill="none" xmlns="http://www.w3.org/2000/svg">
  <path fill-rule="evenodd" clip-rule="evenodd" d="M9.94468 1.45672C9.94468 2.10353 10.152 2.53473 10.6357 2.89407L11.1195 3.10967C9.25363 3.10967 7.5951 3.39714 6.1439 4.18768C4.20895 5.12196 4.20895 4.25955 3.03416 4.25955C2.41221 4.25955 1.79026 5.4813 2.82685 6.05624C3.10327 6.19997 3.65611 6.41558 4.00164 6.41558C3.03416 8.35601 2.06669 10.3683 1.09922 12.3088C0.891899 12.3088 0.615478 12.2369 0.477268 12.3806C0.0626362 12.7399 0.822793 13.7461 1.03011 14.0335L1.79026 14.6084C3.51789 15.6865 6.69673 15.7584 8.21705 14.2491C8.63167 13.8898 9.18452 13.243 9.18452 12.5243C9.18452 12.2369 8.63168 12.3088 8.49347 12.3088C8.42436 12.165 8.21705 11.7337 8.14794 11.5901C7.31868 10.009 6.2821 8.21228 5.66016 6.63118C5.52194 6.34371 5.59105 6.48744 6.1439 6.34371C7.38779 6.05624 8.76989 5.2657 9.94468 5.2657V16.9082C9.11542 16.9082 8.49347 17.6269 8.49347 18.4893H6.76584C6.213 18.4893 5.52194 19.1361 5.52194 19.9985H11.465H17.408C17.408 19.1361 16.717 18.4893 16.1641 18.4893H14.4366C14.4366 17.6269 13.8145 16.9082 12.9853 16.9082V5.2657C14.1601 5.2657 15.5422 6.05624 16.7861 6.34371C17.3389 6.48744 17.408 6.34371 17.2698 6.63118C16.5788 8.21228 15.6113 10.009 14.7821 11.5901C14.713 11.7337 14.5057 12.165 14.4366 12.3088C14.2983 12.3088 13.6763 12.2369 13.6763 12.5243C13.6763 13.243 14.2983 13.8898 14.713 14.2491C16.1641 15.7584 19.4121 15.6865 21.1397 14.6084L21.8998 14.0335C22.1071 13.7461 22.8674 12.7399 22.4528 12.3806C22.3146 12.2369 22.038 12.3088 21.8307 12.3088C20.8633 10.3683 19.8958 8.35601 18.9284 6.41558C19.2739 6.41558 19.8267 6.19997 20.034 6.05624C21.1397 5.4813 20.4487 4.25955 19.8267 4.25955C18.7211 4.25955 18.7211 5.12196 16.7861 4.18768C15.3349 3.39714 13.6763 3.10967 11.8105 3.10967L12.2251 2.89407C12.778 2.53473 12.9853 2.10353 12.9853 1.45672C12.9853 -0.483701 9.94468 -0.483701 9.94468 1.45672ZM18.1681 6.70305L16.7861 9.50589L15.404 12.3088H18.1681H20.8633L19.5503 9.50589L18.1681 6.70305ZM4.76179 6.70305L6.1439 9.50589L7.526 12.3088H4.76179H1.99758L3.37968 9.50589L4.76179 6.70305Z" fill="#1E293B" />
</svg>